<svg id="Layer_1" xmlns="http://www.w3.org/2000/svg" viewBox="0 0 522.1 128.2" width="120px" height="50px" ><path id="XMLID_36_" d="M50.8 92.6c-17.4 0-31.5-14.1-31.5-31.5s14.1-31.5 31.5-31.5 31.5 14.1 31.5 31.5c0 9.5-4.3 18.1-11 23.9L51 69.3v23.3h-.2m50.8-31.5c0-28-22.7-50.8-50.8-50.8C22.7 10.3 0 33.1 0 61.1s22.7 50.8 50.8 50.8h.2V92.6l46.2 35.6V105l-10.5-8.1c9.2-9.2 14.9-21.8 14.9-35.8" fill="#fff"/><path id="XMLID_35_" fill="#fff" d="M164.8 49.5l-19.1 30.4-19.1-30.4h-20.7l39.7 63.2h.1l39.8-63.2z"/><path id="XMLID_34_" d="M482.8 74.3l-6.8-2.5c-5.1-1.8-7.4-3-7.4-5.5 0-3 3-4.4 7.5-4.4 4.3 0 8.6 1.3 12.4 3.5l12.3-8.7c-6.3-5.8-14.7-8.7-24.5-8.7-14.9 0-25.9 6.8-25.9 18.6 0 9.8 7.3 14.6 19.2 18.9l7.5 2.8c4.3 1.6 7.3 2.8 7.3 5.6 0 3.5-4.1 5.1-9 5.1-5.8 0-11-1.9-15.6-5.1l-12.2 8.7c6.4 6.3 16 10.3 27.5 10.3 15.4 0 27.4-7 27.4-19.8 0-9.5-7.1-14.3-19.7-18.8" fill="#fff"/><path id="XMLID_31_" d="M249.2 75.2c-2.1-15-14.9-27-31.2-28.2-.6 0-1.2-.1-1.8-.1-19.2 0-34.7 14.7-34.7 32.8 0 .9 0 1.9.1 2.8.8 9.7 5.6 17.2 12.3 22.3 3.7 2.9 8 5.2 12.8 6.4 3.7 1 7.4 1.4 11.2 1.4 9.4 0 19.5-3.7 25.8-9.4l-11.4-8.3c-3.4 2.4-7.9 4.4-12.5 4.4-12.4 0-19.5-5.9-22.3-13.8h51.7l.3-4.1c.1-2 0-4.1-.3-6.2m-34-14.6c8.2 0 15.8 5 17.4 12.2h-34.4c2.7-7.2 8.8-12.2 17-12.2" fill="#fff"/><path id="XMLID_30_" d="M290.7 48.6c-6.3 0-12.1 1.7-17 4.6l-5.3-3.7h-9.2v62.4h18.3V75.5c0-6.7 5.9-12.1 13.2-12.1 7.3 0 13.2 5.4 13.2 12.1v36.4h18.3V77.3c.1-15.8-14-28.7-31.5-28.7" fill="#fff"/><path id="XMLID_29_" d="M420.7 49.5v36.4c0 6.7-5.9 12.1-13.3 12.1-7.3 0-13.3-5.4-13.3-12.1V49.5h-18.3v34.6c0 15.9 14.1 28.7 31.6 28.7 6.3 0 12.2-1.7 17.1-4.6l5 3.7h9.6V49.5h-18.4z" fill="#fff"/><path id="XMLID_28_" d="M360.6 97.5c-4.6 0-10.9-.8-10.9-8.5V63.4h10.2l7.4-13.9h-17.6V30.3l-17.9 9.4v49.5c0 15.5 10.2 22.7 26.6 22.7h10.3V97.5h-8.1z" fill="#fff"/><path id="XMLID_27_" fill="#e72d2b" d="M475.9 0v23.3l46.2 35.5V35.6z"/></svg>